<svg width="30" height="30" viewBox="0 0 30 30" fill="none" xmlns="http://www.w3.org/2000/svg">
<rect width="30" height="30" rx="15" fill="#2EC36E"/>
<path d="M14.6359 15.3186C14.8959 15.3186 15.1067 15.1078 15.1067 14.8477V9.08019C15.1067 8.82016 14.8959 8.60938 14.6359 8.60938C14.3758 8.60938 14.165 8.82016 14.165 9.08019V14.8477C14.165 15.1078 14.3758 15.3186 14.6359 15.3186Z" fill="white"/>
<path d="M13.6113 17.2569C13.6121 17.2577 13.6129 17.2585 13.6137 17.2593C13.8891 17.5348 14.2509 17.6724 14.6127 17.6724C14.9742 17.6724 15.3356 17.5349 15.6105 17.26L18.2169 14.6638C18.4011 14.4803 18.4017 14.1822 18.2182 13.998C18.0347 13.8138 17.7366 13.8131 17.5524 13.9966L14.9454 16.5935C14.8564 16.6824 14.7382 16.7314 14.6124 16.7314C14.4871 16.7314 14.3693 16.6828 14.2805 16.5945L11.7226 13.9997C11.5401 13.8145 11.242 13.8124 11.0568 13.9949C10.8716 14.1774 10.8695 14.4755 11.052 14.6607L13.6113 17.2569Z" fill="white"/>
<path d="M20.1915 18.3086C19.9315 18.3086 19.7207 18.5194 19.7207 18.7794C19.7207 19.2986 19.2983 19.7211 18.7791 19.7211H10.4927C9.97343 19.7211 9.55101 19.2986 9.55101 18.7794C9.55101 18.5194 9.34023 18.3086 9.08019 18.3086C8.82016 18.3086 8.60938 18.5194 8.60938 18.7794C8.60938 19.8179 9.45421 20.6627 10.4927 20.6627H18.7791C19.8175 20.6627 20.6624 19.8179 20.6624 18.7794C20.6624 18.5194 20.4516 18.3086 20.1915 18.3086Z" fill="white"/>
</svg>
