<svg width="30" height="30" viewBox="0 0 30 30" fill="none" xmlns="http://www.w3.org/2000/svg">
<rect width="30" height="30" rx="15" fill="#EA0A2A"/>
<path d="M15.0661 15.4963C15.304 15.4963 15.4967 15.2572 15.4967 14.9623V14.3082C15.4967 14.0134 15.304 13.7744 15.0661 13.7744C14.8284 13.7744 14.6357 14.0134 14.6357 14.3082V14.9623C14.6357 15.2572 14.8284 15.4963 15.0661 15.4963Z" fill="white"/>
<path d="M24.8865 14.9265C25.0069 14.7278 24.9903 14.472 24.8477 14.2884C24.7648 14.1807 23.7133 12.8319 22.0269 11.4679C21.0097 10.6454 19.9713 9.98862 18.9405 9.51563C17.6295 8.91428 16.326 8.60938 15.0662 8.60938C13.8063 8.60938 12.5028 8.91428 11.1918 9.51563C10.1609 9.98862 9.1226 10.6454 8.10543 11.4679C6.38487 12.8595 5.32434 14.2362 5.28008 14.2941C5.12734 14.4939 5.12734 14.7778 5.28008 14.9776C5.32434 15.0354 6.38487 16.4123 8.10543 17.8038C9.1226 18.6263 10.1609 19.2831 11.1918 19.7561C12.5028 20.3575 13.8063 20.6624 15.0662 20.6624C16.326 20.6624 17.6295 20.3575 18.9405 19.7561C19.9713 19.2831 21.0097 18.6263 22.0269 17.8038C23.7475 16.4123 24.808 15.0356 24.8522 14.9776C24.8646 14.9613 24.876 14.944 24.8865 14.9265ZM8.86397 12.3301C10.3251 11.152 12.5873 9.7479 15.0661 9.7479C17.545 9.7479 19.8072 11.152 21.2684 12.3301C22.3198 13.1778 23.121 14.0349 23.5565 14.5357C23.2906 14.6758 23.0152 14.7275 22.7239 14.6923C22.2612 14.6359 21.8704 14.374 21.6681 14.2125C21.2806 13.8377 20.8801 13.485 20.4773 13.1635C18.1193 11.2814 16.2331 10.8864 15.0662 10.8864C12.9518 10.8864 10.9565 12.1247 9.65498 13.1635C9.24724 13.489 8.84176 13.8465 8.44988 14.2265C8.0518 14.5946 7.63907 14.7467 7.18888 14.6923C6.97239 14.6659 6.77192 14.5944 6.59879 14.5094C7.03916 14.0052 7.83063 13.1632 8.86397 12.3301ZM15.0655 12.0891C16.4925 12.0891 17.6535 13.2314 17.6535 14.6353C17.6535 16.0395 16.4925 17.1817 15.0655 17.1817C13.6385 17.1817 12.4775 16.0395 12.4775 14.6353C12.4775 13.2314 13.6385 12.0891 15.0655 12.0891ZM15.0662 19.5238C12.5873 19.5238 10.3251 18.1195 8.86397 16.9416C8.39247 16.5615 7.97158 16.1796 7.61112 15.8287C8.2 15.7708 8.75912 15.5071 9.25207 15.0492C9.25509 15.0464 9.25811 15.0436 9.26098 15.0406C9.62794 14.6847 10.0068 14.3503 10.3872 14.0467C10.7481 13.7586 11.1672 13.4532 11.6269 13.1694C11.4278 13.6188 11.3171 14.1146 11.3171 14.6353C11.3171 16.6672 12.9987 18.3202 15.0655 18.3202C17.1325 18.3202 18.8139 16.6672 18.8139 14.6353C18.8139 14.1137 18.7028 13.6173 18.5033 13.1672C18.8953 13.4092 19.3096 13.699 19.7452 14.0467C20.1256 14.3503 20.5045 14.6847 20.8713 15.0406C20.8834 15.0523 20.896 15.0634 20.909 15.0741C21.26 15.3597 21.8242 15.7161 22.533 15.8149C20.9478 17.3591 18.1718 19.5238 15.0662 19.5238Z" fill="white"/>
</svg>
