<svg width="16" height="16" viewBox="0 0 16 16" fill="none" xmlns="http://www.w3.org/2000/svg">
<path d="M14.0169 8.79985C13.8402 8.79985 13.6556 8.74364 13.4789 8.7035C13.1212 8.62468 12.7697 8.52003 12.4271 8.39038C12.0547 8.25487 11.6453 8.26191 11.2777 8.41013C10.9101 8.55835 10.6103 8.83729 10.436 9.19326L10.2594 9.55455C9.47736 9.11954 8.75877 8.57924 8.1237 7.94879C7.49325 7.31372 6.95295 6.59513 6.51793 5.81312L6.85514 5.58832C7.21111 5.41402 7.49005 5.11424 7.63827 4.74665C7.78649 4.37906 7.79353 3.96963 7.65803 3.59717C7.53055 3.25387 7.42594 2.90251 7.3449 2.54539C7.30476 2.36876 7.27264 2.1841 7.24856 1.99943C7.15106 1.4339 6.85484 0.921757 6.41325 0.555239C5.97167 0.188721 5.41373 -0.00808811 4.83991 0.000254757H2.43126C2.08525 -0.00299414 1.74259 0.06835 1.42662 0.20943C1.11066 0.35051 0.828797 0.558014 0.600233 0.817815C0.371669 1.07762 0.201766 1.38362 0.102091 1.71498C0.00241563 2.04635 -0.0246914 2.3953 0.0226149 2.73808C0.450341 6.10166 1.98649 9.22688 4.38841 11.6201C6.79033 14.0133 9.92112 15.538 13.2862 15.9535H13.5913C14.1834 15.9544 14.755 15.7372 15.1971 15.3433C15.4511 15.1162 15.654 14.8377 15.7924 14.5263C15.9308 14.2149 16.0016 13.8776 16 13.5369V11.1282C15.9901 10.5705 15.7871 10.0335 15.4254 9.60888C15.0637 9.18425 14.5659 8.8983 14.0169 8.79985ZM14.4183 13.6171C14.4182 13.7311 14.3937 13.8438 14.3467 13.9476C14.2996 14.0514 14.231 14.1441 14.1453 14.2193C14.0559 14.2972 13.951 14.3553 13.8376 14.3899C13.7241 14.4245 13.6046 14.4348 13.487 14.42C10.4801 14.0345 7.68712 12.6589 5.54863 10.5102C3.41013 8.36155 2.04781 5.56209 1.67655 2.55342C1.66377 2.43581 1.67497 2.31684 1.70947 2.20368C1.74397 2.09052 1.80106 1.98553 1.87727 1.89506C1.95251 1.80941 2.04512 1.74078 2.14895 1.69371C2.25278 1.64664 2.36544 1.62222 2.47944 1.62208H4.88808C5.07479 1.61792 5.25711 1.67899 5.40365 1.79475C5.55019 1.91052 5.65179 2.07375 5.69096 2.25635C5.72308 2.47581 5.76322 2.69259 5.8114 2.90669C5.90415 3.32992 6.02758 3.74585 6.18072 4.15116L5.05669 4.67303C4.96058 4.71713 4.87413 4.77977 4.8023 4.85737C4.73047 4.93497 4.67468 5.02599 4.63812 5.12521C4.60157 5.22443 4.58497 5.32989 4.58929 5.43554C4.5936 5.5412 4.61875 5.64496 4.66327 5.74086C5.81878 8.21595 7.80836 10.2055 10.2835 11.361C10.4789 11.4413 10.6982 11.4413 10.8936 11.361C10.9938 11.3252 11.0858 11.2699 11.1644 11.1982C11.2429 11.1265 11.3065 11.04 11.3513 10.9435L11.8491 9.81951C12.2641 9.96794 12.6878 10.0913 13.1176 10.1888C13.3317 10.237 13.5485 10.2771 13.768 10.3093C13.9506 10.3484 14.1138 10.45 14.2296 10.5966C14.3453 10.7431 14.4064 10.9254 14.4022 11.1121L14.4183 13.6171Z" fill="#0D100C"/>
</svg>
