<svg width="15" height="15" viewBox="0 0 15 15" fill="none" xmlns="http://www.w3.org/2000/svg">
<path d="M7.5 4.77273C6 4.77273 4.77273 6 4.77273 7.5C4.77273 9 6 10.2273 7.5 10.2273C9 10.2273 10.2273 9 10.2273 7.5C10.2273 6 9 4.77273 7.5 4.77273ZM13.5682 6.81818C13.2273 3.95455 10.9773 1.70455 8.18182 1.43182V0H6.81818V1.43182C3.95455 1.70455 1.70455 3.95455 1.43182 6.81818H0V8.18182H1.43182C1.77273 11.0455 4.02273 13.2955 6.81818 13.5682V15H8.18182V13.5682C11.0455 13.2273 13.2955 10.9773 13.5682 8.18182H15V6.81818H13.5682ZM7.5 12.2727C4.84091 12.2727 2.72727 10.1591 2.72727 7.5C2.72727 4.84091 4.84091 2.72727 7.5 2.72727C10.1591 2.72727 12.2727 4.84091 12.2727 7.5C12.2727 10.1591 10.1591 12.2727 7.5 12.2727Z" fill="white"/>
</svg>
