<svg width="15" height="15" viewBox="0 0 15 15" fill="none" xmlns="http://www.w3.org/2000/svg">
<path d="M14.4013 4.57881C13.6104 2.73405 12.2666 1.39241 10.4074 0.599054C9.47821 0.202538 8.50471 0 7.48767 0C6.47081 0 5.50449 0.200625 4.5763 0.599054C2.73255 1.3903 1.38272 2.73108 0.59049 4.57881C0.193505 5.50452 0 6.47434 0 7.49176C0 8.50938 0.193505 9.48724 0.59049 10.4131C1.38272 12.2609 2.73272 13.6097 4.5763 14.4011C5.50466 14.7996 6.47078 15 7.48767 15C8.50456 15 9.47821 14.7975 10.4073 14.4011C12.2664 13.6078 13.6103 12.2577 14.4013 10.4131C14.7995 9.48428 15 8.50938 15 7.49176C15 6.47434 14.7997 5.50766 14.4013 4.57881ZM13.204 10.807C12.6153 11.8173 11.8087 12.6187 10.7929 13.2113C9.78319 13.8003 8.67689 14.0974 7.48784 14.0974C6.59397 14.0974 5.74103 13.9252 4.92902 13.5723C4.11703 13.2195 3.41596 12.7558 2.82949 12.1692C2.24301 11.5824 1.77623 10.8741 1.42718 10.0602C1.07917 9.24937 0.910515 8.38632 0.910515 7.49179C0.910515 6.30192 1.2027 5.20063 1.78814 4.19318C2.37566 3.18207 3.1824 2.37976 4.19105 1.78892C5.19953 1.19811 6.29865 0.902603 7.48767 0.902603C8.67689 0.902603 9.78299 1.19985 10.7927 1.78892C11.8085 2.3815 12.6134 3.18378 13.2038 4.19316C13.7943 5.20237 14.0895 6.30192 14.0895 7.49176C14.0895 8.68165 13.7963 9.79045 13.204 10.807Z" fill="white"/>
<path d="M7.96194 7.42582V3.17533C7.96194 2.92098 7.74045 2.71582 7.48621 2.71582C7.24844 2.71582 7.03516 2.92098 7.03516 3.17533V7.49144C7.03516 7.49968 7.0516 7.53259 7.0516 7.55711C7.03516 7.70484 7.07628 7.82792 7.17462 7.92648L9.62688 10.3799C9.79097 10.5441 10.0944 10.5441 10.2583 10.3799C10.4469 10.1912 10.4345 9.91737 10.2583 9.73985L7.96194 7.42582Z" fill="white"/>
</svg>
