<svg width="10" height="15" viewBox="0 0 10 15" fill="none" xmlns="http://www.w3.org/2000/svg">
<path d="M6.02435 6.90121V3.11227C6.60399 3.2525 7.10972 3.50981 7.46137 3.85777C7.77262 4.16561 8.40787 4.25084 8.88024 4.04816C9.35276 3.84548 9.48358 3.43163 9.17233 3.1238C8.4364 2.39583 7.30245 1.90162 6.02435 1.72745V0.667336C6.02435 0.298776 5.56573 0 5 0C4.43427 0 3.97565 0.298776 3.97565 0.667336V1.72545C1.70847 2.03337 0 3.34507 0 4.91207C0 6.47907 1.70862 7.79096 3.97565 8.09889V11.8878C3.39601 11.7476 2.89028 11.4903 2.53863 11.1423C2.22738 10.8345 1.59213 10.7492 1.11976 10.9519C0.647243 11.1546 0.516419 11.5685 0.827675 11.8763C1.5636 12.6043 2.69755 13.0985 3.97565 13.2726V14.3327C3.97565 14.7012 4.43427 15 5 15C5.56573 15 6.02435 14.7012 6.02435 14.3327V13.2746C8.29153 12.9667 10 11.655 10 10.088C10 8.52102 8.29153 7.20914 6.02435 6.90121ZM2.0487 4.91207C2.0487 4.08715 2.85267 3.38416 3.97565 3.11274V6.7114C2.85267 6.43998 2.0487 5.73699 2.0487 4.91207ZM6.02435 11.8873V8.2886C7.14733 8.56002 7.9513 9.26301 7.9513 10.0879C7.9513 10.9129 7.14748 11.6158 6.02435 11.8873Z" fill="white"/>
</svg>
