<svg width="15" height="15" viewBox="0 0 15 15" fill="none" xmlns="http://www.w3.org/2000/svg">
<path d="M14.4013 4.57881C13.6104 2.73405 12.2666 1.39241 10.4074 0.599055C9.47821 0.202538 8.5047 0 7.48767 0C6.47081 0 5.50448 0.200625 4.5763 0.599055C2.73255 1.3903 1.38272 2.73108 0.59049 4.57881C0.193505 5.50452 0 6.47434 0 7.49176C0 8.50938 0.193505 9.48724 0.59049 10.4131C1.16058 11.7428 2.01948 12.814 3.1433 13.6052C3.58121 13.9135 4.05935 14.1792 4.5763 14.4011C5.50466 14.7996 6.47078 15 7.48767 15C8.50456 15 9.47821 14.7975 10.4073 14.4011C10.9316 14.1774 11.4149 13.9094 11.8563 13.5985C12.9804 12.807 13.8334 11.7376 14.4013 10.4131C14.7995 9.48428 15 8.50938 15 7.49176C15 6.47434 14.7997 5.50766 14.4013 4.57881ZM13.204 10.807C12.6153 11.8173 11.8087 12.6187 10.7929 13.2113C9.78319 13.8003 8.67689 14.0974 7.48784 14.0974C6.59397 14.0974 5.74103 13.9252 4.92902 13.5723C4.11703 13.2195 3.41596 12.7558 2.82948 12.1692C2.24301 11.5824 1.77623 10.8741 1.42718 10.0602C1.07917 9.24937 0.910515 8.38632 0.910515 7.49179C0.910515 6.30192 1.2027 5.20063 1.78814 4.19319C2.37566 3.18207 3.1824 2.37976 4.19105 1.78892C5.19953 1.19811 6.29865 0.902604 7.48767 0.902604C8.67689 0.902604 9.78299 1.19985 10.7927 1.78892C11.8085 2.3815 12.6134 3.18378 13.2038 4.19316C13.7943 5.20237 14.0895 6.30192 14.0895 7.49176C14.0895 8.68165 13.7963 9.79045 13.204 10.807Z" fill="white"/>
<path d="M10.6163 6.35325C10.6163 4.63399 9.21834 3.23529 7.50002 3.23529C5.7817 3.23529 4.38377 4.63399 4.38377 6.35325C4.38377 8.07251 5.7817 9.47121 7.50002 9.47121C9.21834 9.47121 10.6163 8.07251 10.6163 6.35325Z" fill="white"/>
<path fill-rule="evenodd" clip-rule="evenodd" d="M3.1433 13.6052C3.58121 13.9135 4.05935 14.1792 4.5763 14.4011C5.50466 14.7996 6.47078 15 7.48767 15C8.50456 15 9.47821 14.7975 10.4073 14.4011C10.9316 14.1774 11.4149 13.9094 11.8563 13.5985C11.7325 11.3017 9.82595 9.47121 7.50002 9.47121C5.17184 9.47121 3.26381 11.3052 3.1433 13.6052Z" fill="white"/>
</svg>
