<svg width="40" height="41" viewBox="0 0 40 41" fill="none" xmlns="http://www.w3.org/2000/svg">
<path d="M32.4494 10.6192C32.3464 10.4429 32.1426 10.3293 31.9443 10.3293C31.9397 10.3293 5.15353 10.3293 5.15353 10.3293C5.15166 10.3293 5.14994 10.3297 5.14806 10.3297C4.95013 10.3318 4.75431 10.4434 4.65217 10.6132C4.65163 10.6142 4.65085 10.615 4.6503 10.616L3.07495 13.2717C2.91007 13.5496 3.00173 13.9085 3.2796 14.0733C3.55771 14.2382 3.91646 14.1465 4.08127 13.8686L5.2423 11.9115L10.6406 18.1533H1.60009L2.74753 16.1903C2.91062 15.9113 2.81661 15.5529 2.53764 15.3899C2.25883 15.2268 1.90039 15.3208 1.73731 15.5997C1.71496 15.638 0.973468 16.9065 0.62511 17.5025C0.470701 17.7667 0.316292 18.0309 0.161882 18.295C0.0101301 18.5546 -0.0937992 18.8345 0.126562 19.1062C0.129688 19.11 0.132032 19.1143 0.135236 19.118C0.135236 19.118 18.0816 40.1657 18.1037 40.1915C18.3266 40.453 18.7685 40.456 18.994 40.1915L26.7652 31.0774L27.0156 30.7929C27.2292 30.5504 27.2058 30.1807 26.9632 29.9672C26.7207 29.7537 26.3511 29.7772 26.1376 30.0196L25.8841 30.3074C25.8821 30.3098 25.88 30.3121 25.878 30.3146L19.9701 37.2434L25.6069 19.3234H35.2497L27.8725 27.9754C27.6628 28.2214 27.6922 28.5906 27.938 28.8002C28.1839 29.0098 28.5531 28.9804 28.7628 28.7347L36.9625 19.1181C36.9648 19.1154 36.9665 19.1122 36.9688 19.1094C37.0354 19.0281 37.0779 18.9369 37.0958 18.8424C37.1207 18.7098 37.0969 18.5707 37.0224 18.4433C37.0202 18.4393 32.4494 10.6192 32.4494 10.6192ZM6.43304 11.4994H17.2865L11.9157 17.8387L6.43304 11.4994ZM18.5489 11.8194L23.9152 18.1533H13.1827L18.5489 11.8194ZM1.84812 19.3234H11.4909L17.1277 37.2434L1.84812 19.3234ZM18.5489 37.8622L12.7175 19.3234H24.3804L18.5489 37.8622ZM25.1823 17.8387L19.8114 11.4994H30.6648L25.1823 17.8387ZM26.4572 18.1533L31.8519 11.9156L35.4978 18.1533H26.4572Z" fill="#333333"/>
<path d="M27.1388 5.42975C28.1771 6.19094 28.788 7.255 29.1177 8.01376C29.2888 8.40729 29.6767 8.66164 30.1063 8.66164C30.5358 8.66164 30.9239 8.40729 31.0949 8.01376C31.4246 7.25508 32.0355 6.19094 33.0738 5.42975C33.3476 5.229 33.511 4.90534 33.511 4.56401C33.511 4.22261 33.3476 3.89894 33.0738 3.6982C32.0355 2.93701 31.4246 1.87287 31.0949 1.11419C30.9238 0.720662 30.5358 0.466309 30.1063 0.466309C29.6767 0.466309 29.2887 0.720662 29.1177 1.11419C28.788 1.87279 28.1771 2.93701 27.1387 3.6982C26.8649 3.89894 26.7015 4.22261 26.7015 4.56401C26.7016 4.90534 26.865 5.229 27.1388 5.42975ZM30.1064 1.76878C30.4986 2.61577 31.1762 3.72 32.2781 4.56386C31.1761 5.40779 30.4985 6.51202 30.1064 7.35893C29.7141 6.51194 29.0364 5.40772 27.9346 4.56386C29.0365 3.71992 29.714 2.61585 30.1064 1.76878Z" fill="#333333"/>
<path d="M39.5953 8.58278C38.7449 7.95936 38.2434 7.0855 37.9726 6.46223C37.8145 6.09825 37.4556 5.86304 37.0583 5.86304C37.0583 5.86304 37.0583 5.86304 37.0582 5.86304C36.661 5.86304 36.3021 6.09825 36.1439 6.46223C35.873 7.0855 35.3718 7.95936 34.5212 8.58286C34.2678 8.76868 34.1166 9.06812 34.1166 9.38389C34.1166 9.69967 34.2679 9.99911 34.5213 10.1849C35.3718 10.8084 35.8731 11.6822 36.144 12.3054C36.3022 12.6695 36.6611 12.9047 37.0584 12.9046C37.4556 12.9046 37.8145 12.6694 37.9726 12.3054C38.2436 11.6822 38.7449 10.8084 39.5954 10.1849C39.8487 9.99903 40 9.69959 40 9.38389C40 9.06812 39.8487 8.7686 39.5953 8.58278ZM37.0582 11.498C36.7287 10.8349 36.2026 10.0297 35.3987 9.38382C36.2027 8.73789 36.7287 7.93271 37.0582 7.26968C37.3878 7.93279 37.9138 8.73789 38.7178 9.38389C37.9137 10.0298 37.3878 10.8349 37.0582 11.498Z" fill="#333333"/>
</svg>
