<svg width="36" height="37" viewBox="0 0 36 37" fill="none" xmlns="http://www.w3.org/2000/svg">
<path d="M35.7887 0.619174C35.6537 0.484195 35.4706 0.408368 35.2797 0.408368C35.0887 0.408368 34.9056 0.484195 34.7706 0.619174L33.1197 2.27013L31.4694 0.619894C31.4026 0.552815 31.3231 0.499589 31.2356 0.463265C31.1482 0.426942 31.0544 0.408234 30.9597 0.408214H28.7997C28.6653 0.40748 28.5333 0.444385 28.4188 0.514752C28.3043 0.585118 28.2118 0.686137 28.1517 0.806374L27.1099 2.89869C23.583 0.822453 19.4536 0.0111315 15.4034 0.598705C11.3532 1.18628 7.62448 3.13761 4.83303 6.13046C2.04158 9.12331 0.354317 12.9787 0.0498573 17.06C-0.254603 21.1412 0.841953 25.2043 3.15845 28.5782L0.407339 32.7203C0.103403 33.1764 -0.0331966 33.7237 0.0207656 34.2691C0.0747278 34.8145 0.315921 35.3244 0.703337 35.7121C1.09075 36.0997 1.60048 36.3413 2.14585 36.3956C2.69122 36.4499 3.23857 36.3137 3.69484 36.01L7.83266 33.2517C10.8246 35.3076 14.3695 36.4082 17.9997 36.4082C21.6299 36.4082 25.1749 35.3076 28.1668 33.2517L32.3046 36.01C32.7609 36.3137 33.3083 36.4499 33.8536 36.3956C34.399 36.3413 34.9087 36.0997 35.2961 35.7121C35.6836 35.3244 35.9247 34.8145 35.9787 34.2691C36.0327 33.7237 35.8961 33.1764 35.5921 32.7203L32.841 28.5782C34.7785 25.7626 35.8709 22.4518 35.9892 19.036C36.1076 15.6202 35.2471 12.2418 33.5092 9.29877L35.6015 8.25621C35.7217 8.19613 35.8227 8.10359 35.8931 7.98907C35.9635 7.87455 36.0004 7.74262 35.9996 7.60821V5.44821C35.9996 5.35349 35.9809 5.25971 35.9446 5.17224C35.9083 5.08477 35.855 5.00532 35.788 4.93845L34.1377 3.28821L35.7887 1.63725C35.9237 1.50223 35.9995 1.31913 35.9995 1.12821C35.9995 0.937295 35.9237 0.754194 35.7887 0.619174ZM29.2446 1.84821H30.6609L32.1009 3.28821L27.3597 8.03013V5.61813L29.2446 1.84821ZM25.9197 9.47013L24.0815 11.3083C22.2385 9.72846 19.8551 8.92396 17.4316 9.06363C15.0082 9.2033 12.733 10.2763 11.0836 12.0574C9.43425 13.8385 8.5389 16.1892 8.58548 18.6163C8.63206 21.0433 9.61695 23.358 11.3334 25.0745C13.0499 26.791 15.3646 27.7759 17.7916 27.8225C20.2187 27.8691 22.5694 26.9737 24.3505 25.3243C26.1316 23.675 27.2046 21.3998 27.3443 18.9763C27.4839 16.5528 26.6794 14.1694 25.0996 12.3264L26.9378 10.4882H27.2978C29.3576 12.9078 30.401 16.0307 30.2095 19.2025C30.0179 22.3743 28.6063 25.349 26.2703 27.5031C23.9344 29.6573 20.8554 30.8238 17.6785 30.7583C14.5015 30.6928 11.4733 29.4002 9.22812 27.1516C6.98298 24.9029 5.69522 21.8726 5.63466 18.6956C5.5741 15.5185 6.74544 12.4413 8.90325 10.1088C11.0611 7.77616 14.0379 6.36918 17.21 6.18262C20.3821 5.99606 23.5033 7.04439 25.9197 9.10797V9.47013ZM21.5997 18.4082C21.6021 19.213 21.3356 19.9955 20.8425 20.6314C20.3494 21.2674 19.6579 21.7205 18.8779 21.9186C18.0979 22.1167 17.2741 22.0486 16.5373 21.7251C15.8004 21.4015 15.1928 20.8411 14.8108 20.1327C14.4288 19.4244 14.2944 18.6088 14.429 17.8153C14.5635 17.0219 14.9593 16.2961 15.5534 15.7533C16.1475 15.2104 16.9059 14.8816 17.7083 14.8191C18.5106 14.7565 19.3108 14.9638 19.9819 15.408L17.4907 17.8992C17.4219 17.9656 17.3671 18.045 17.3293 18.1329C17.2916 18.2207 17.2717 18.3152 17.2709 18.4108C17.2701 18.5064 17.2883 18.6012 17.3245 18.6897C17.3607 18.7782 17.4142 18.8586 17.4818 18.9262C17.5494 18.9938 17.6298 19.0472 17.7183 19.0834C17.8067 19.1196 17.9015 19.1379 17.9971 19.137C18.0927 19.1362 18.1872 19.1163 18.2751 19.0786C18.3629 19.0409 18.4424 18.986 18.5088 18.9172L21 16.426C21.3909 17.0132 21.5996 17.7028 21.5997 18.4082ZM21.0122 14.3762C19.9878 13.6096 18.711 13.2595 17.4389 13.3964C16.1668 13.5334 14.9938 14.1471 14.1559 15.1141C13.3181 16.0812 12.8778 17.3297 12.9235 18.6083C12.9692 19.887 13.4976 21.1009 14.4023 22.0056C15.3071 22.9103 16.5209 23.4387 17.7996 23.4845C19.0783 23.5302 20.3268 23.0898 21.2938 22.252C22.2608 21.4142 22.8746 20.2412 23.0115 18.969C23.1484 17.6969 22.7983 16.4201 22.0317 15.3957L24.0837 13.3437C25.3902 14.9122 26.0417 16.9241 25.9027 18.9607C25.7637 20.9974 24.8448 22.902 23.3372 24.2784C21.8297 25.6548 19.8495 26.397 17.8087 26.3507C15.7679 26.3043 13.8235 25.4729 12.38 24.0294C10.9365 22.5859 10.1051 20.6415 10.0587 18.6007C10.0124 16.5598 10.7546 14.5797 12.131 13.0721C13.5074 11.5646 15.412 10.6457 17.4487 10.5067C19.4853 10.3676 21.4971 11.0191 23.0656 12.3256L21.0122 14.3762ZM2.89565 34.812C2.71537 34.9279 2.50114 34.9793 2.28788 34.9579C2.07462 34.9364 1.87492 34.8434 1.72133 34.6939C1.56984 34.5409 1.47574 34.3403 1.45489 34.126C1.43403 33.9117 1.48771 33.6967 1.60685 33.5174L4.07572 29.8008C4.83481 30.7274 5.68401 31.5763 6.61083 32.3351L2.89565 34.812ZM34.3926 33.516C34.5118 33.6953 34.5654 33.9102 34.5446 34.1245C34.5237 34.3389 34.4296 34.5394 34.2781 34.6924C34.1246 34.8419 33.9249 34.935 33.7116 34.9564C33.4983 34.9779 33.2841 34.9264 33.1038 34.8105L29.3886 32.3337C30.3155 31.5749 31.1647 30.7259 31.9237 29.7993L34.3926 33.516ZM34.5597 18.4082C34.5669 22.0723 33.3612 25.6357 31.1306 28.5426C28.9 31.4495 25.77 33.5363 22.2289 34.4775C18.6877 35.4187 14.9347 35.1613 11.5552 33.7455C8.17566 32.3297 5.35982 29.8351 3.54693 26.651C1.73404 23.4668 1.02608 19.7721 1.53348 16.1433C2.04088 12.5145 3.73511 9.15574 6.35186 6.59096C8.96861 4.02617 12.3607 2.39964 15.9989 1.96512C19.6371 1.5306 23.3169 2.31254 26.464 4.18893L25.9953 5.12493C25.9453 5.22533 25.9194 5.33603 25.9197 5.44821V7.28205C23.1145 5.28178 19.6598 4.409 16.2412 4.83687C12.8225 5.26473 9.68952 6.96196 7.46376 9.59188C5.238 12.2218 4.08207 15.5923 4.22527 19.0347C4.36848 22.477 5.80036 25.7398 8.23686 28.1758C10.6734 30.6118 13.9365 32.0429 17.3789 32.1854C20.8213 32.3278 24.1915 31.1711 26.8209 28.9447C29.4503 26.7184 31.1468 23.585 31.5739 20.1662C32.001 16.7474 31.1275 13.293 29.1266 10.4882H30.9597C31.0714 10.4883 31.1815 10.4624 31.2815 10.4126L32.2175 9.94389C33.7494 12.5015 34.5589 15.4269 34.5597 18.4082ZM34.5597 5.74701V7.16325L30.7898 9.04821H28.3778L33.1197 4.30701L34.5597 5.74701Z" fill="#333333"/>
</svg>
