<svg width="40" height="41" viewBox="0 0 40 41" fill="none" xmlns="http://www.w3.org/2000/svg">
<path d="M18.3335 40.4664C12.0735 40.4664 8.3335 30.2964 8.3335 20.4664C8.3335 13.9414 10.7785 0.466431 18.3335 0.466431C21.8668 0.466431 25.0368 3.97143 26.8135 9.84143C26.9468 10.2814 26.6985 10.7464 26.2585 10.8814C25.8168 11.0148 25.3535 10.7648 25.2185 10.3264C23.6885 5.27143 21.0502 2.1331 18.3335 2.1331C12.6485 2.1331 10.0002 13.0731 10.0002 20.4664C10.0002 30.4031 13.8168 38.7998 18.3335 38.7998C20.9518 38.7998 23.5352 35.8348 25.0735 31.0598C25.1852 30.7148 25.5052 30.4814 25.8668 30.4814C26.3268 30.4814 26.7085 30.8548 26.7085 31.3148C26.7085 31.4498 26.6768 31.5764 26.6218 31.6898C24.8202 37.1881 21.7285 40.4664 18.3335 40.4664Z" fill="#333333"/>
<path d="M25.8331 12.1333C25.6131 12.1333 25.4014 12.0466 25.2431 11.8899L21.9098 8.55658C21.5848 8.23158 21.5848 7.70325 21.9098 7.37825C22.2348 7.05325 22.7631 7.05325 23.0881 7.37825L25.7414 10.0316L27.6664 7.46658C27.9431 7.09825 28.4648 7.02325 28.8331 7.29992C29.2014 7.57658 29.2764 8.09825 28.9998 8.46658L26.4998 11.7999C26.3548 11.9933 26.1331 12.1133 25.8931 12.1316C25.8714 12.1333 25.8531 12.1333 25.8331 12.1333Z" fill="#333333"/>
<path d="M20 32.5497C10.17 32.5497 0 28.8097 0 22.5497C0 19.1431 3.325 16.0297 8.89333 14.2231C9.33 14.0831 9.80167 14.3197 9.94333 14.7581C10.085 15.1964 9.845 15.6647 9.40833 15.8081C4.56 17.3814 1.66667 19.9014 1.66667 22.5497C1.66667 27.5347 11.1467 30.8831 20 30.8831C27.3933 30.8831 38.3333 28.2347 38.3333 22.5497C38.3333 19.7914 35.0883 17.1147 29.8633 15.5664C29.4217 15.4347 29.17 14.9714 29.3017 14.5297C29.4333 14.0897 29.895 13.8364 30.3383 13.9681C36.3883 15.7614 40 18.9697 40 22.5497C40 30.1047 26.525 32.5497 20 32.5497Z" fill="#333333"/>
<path d="M32.5 19.2165C32.2867 19.2165 32.0734 19.1349 31.91 18.9732L28.5767 15.6399C28.405 15.4682 28.3184 15.2332 28.335 14.9915C28.3517 14.7499 28.4734 14.5299 28.6667 14.3849L32 11.8849C32.3684 11.6082 32.89 11.6815 33.1667 12.0515C33.4434 12.4199 33.3684 12.9415 33 13.2182L30.435 15.1415L33.0884 17.7949C33.4134 18.1199 33.4134 18.6482 33.0884 18.9732C32.9267 19.1349 32.7134 19.2165 32.5 19.2165Z" fill="#333333"/>
<path d="M20.0002 27.1333C16.3235 27.1333 13.3335 24.1433 13.3335 20.4666C13.3335 16.7899 16.3235 13.7999 20.0002 13.7999C23.6768 13.7999 26.6668 16.7899 26.6668 20.4666C26.6668 24.1433 23.6768 27.1333 20.0002 27.1333ZM20.0002 15.4666C17.2435 15.4666 15.0002 17.7099 15.0002 20.4666C15.0002 23.2233 17.2435 25.4666 20.0002 25.4666C22.7568 25.4666 25.0002 23.2233 25.0002 20.4666C25.0002 17.7099 22.7568 15.4666 20.0002 15.4666Z" fill="#333333"/>
<path d="M20.0002 22.1333C19.0818 22.1333 18.3335 21.3849 18.3335 20.4666C18.3335 19.5483 19.0818 18.7999 20.0002 18.7999C20.9185 18.7999 21.6668 19.5483 21.6668 20.4666C21.6668 21.3849 20.9185 22.1333 20.0002 22.1333Z" fill="#333333"/>
</svg>
