<svg width="16" height="13" viewBox="0 0 16 13" fill="none" xmlns="http://www.w3.org/2000/svg">
<path d="M14.101 0H1.89906C0.851928 0 0 0.818137 0 1.82373V10.3286C0 11.3342 0.851928 12.1524 1.89906 12.1524H14.101C15.1481 12.1524 16 11.3342 16 10.3286V1.82373C16 0.818137 15.1481 0 14.101 0ZM14.101 10.5423H1.89906C1.74514 10.5423 1.61015 10.4425 1.61015 10.3286V2.94837L7.12875 7.60747C7.24189 7.70302 7.38576 7.75562 7.5339 7.75562L8.46593 7.75566C8.61399 7.75566 8.75795 7.70302 8.87113 7.60747L14.39 2.94821V10.3287C14.3899 10.4425 14.2549 10.5423 14.101 10.5423ZM8.00002 6.15694L2.63249 1.61006H13.3675L8.00002 6.15694Z" fill="#0D100C"/>
</svg>
