<svg width="16" height="21" viewBox="0 0 16 21" fill="none" xmlns="http://www.w3.org/2000/svg">
<path d="M7.68174 0C3.44078 0 0 3.41858 0 7.63218C0 8.71871 0.213382 9.77873 0.666818 10.7593C2.58725 14.9199 6.26809 19.3455 7.36167 20.591C7.44168 20.697 7.54837 20.75 7.68174 20.75C7.8151 20.75 7.92179 20.697 8.00181 20.591C9.09539 19.3455 12.7762 14.9464 14.67 10.7593C15.1234 9.77873 15.3368 8.74521 15.3368 7.63218C15.3635 3.41858 11.896 0 7.68174 0ZM7.68174 11.5808C5.49458 11.5808 3.70751 9.80523 3.70751 7.63218C3.70751 5.45913 5.49458 3.68359 7.68174 3.68359C9.8689 3.68359 11.6826 5.45913 11.6826 7.63218C11.656 9.80523 9.8689 11.5808 7.68174 11.5808Z" fill="#828282"/>
</svg>
